<svg width="315" height="90" viewBox="0 0 315 90" fill="none" xmlns="http://www.w3.org/2000/svg">
<path d="M89.2365 35.4772C90.8261 35.4772 92.217 35.8001 93.4092 36.4459C93.8065 36.6446 93.9556 37.0171 93.8562 37.5635L92.5895 44.2696C92.5398 44.8657 92.1921 45.0396 91.5463 44.7912C90.8012 44.5428 89.9319 44.4187 88.9384 44.4187C88.2926 44.4187 87.7959 44.4435 87.4482 44.4932C85.3618 44.5925 83.6232 45.3376 82.2323 46.7285C80.8414 48.0698 80.146 49.8332 80.146 52.0189V73.1059C80.146 73.3542 80.0466 73.5778 79.8479 73.7765C79.6989 73.9255 79.5002 74 79.2518 74H72.3967C72.1483 74 71.9248 73.9255 71.7261 73.7765C71.5771 73.5778 71.5026 73.3542 71.5026 73.1059V36.8184C71.5026 36.57 71.5771 36.3713 71.7261 36.2223C71.9248 36.0236 72.1483 35.9243 72.3967 35.9243H79.2518C79.5002 35.9243 79.6989 36.0236 79.8479 36.2223C80.0466 36.3713 80.146 36.57 80.146 36.8184V40.1715C80.146 40.3702 80.1708 40.4944 80.2205 40.544C80.3198 40.544 80.4192 40.4695 80.5185 40.3205C82.6049 37.0916 85.5109 35.4772 89.2365 35.4772ZM126.434 50.6777C126.632 51.9196 126.732 53.3104 126.732 54.8504L126.657 57.1602C126.657 57.7563 126.359 58.0544 125.763 58.0544H102.441C102.192 58.0544 102.068 58.1786 102.068 58.427C102.217 60.0662 102.441 61.1839 102.739 61.78C103.931 65.3566 106.837 67.1697 111.457 67.2194C114.835 67.2194 117.517 65.8285 119.504 63.0467C119.703 62.7487 119.951 62.5996 120.249 62.5996C120.448 62.5996 120.622 62.6741 120.771 62.8232L125.391 66.6233C125.838 66.971 125.912 67.3684 125.614 67.8155C124.074 70.0012 122.013 71.6901 119.43 72.8823C116.896 74.0745 114.065 74.6706 110.935 74.6706C107.061 74.6706 103.757 73.8013 101.025 72.0627C98.3427 70.3241 96.3805 67.89 95.1386 64.7605C93.9961 62.0781 93.4249 58.3524 93.4249 53.5837C93.4249 50.7025 93.7229 48.3678 94.319 46.5795C95.3125 43.1023 97.1753 40.3702 99.9074 38.3832C102.689 36.3465 106.017 35.3282 109.892 35.3282C119.678 35.3282 125.192 40.4447 126.434 50.6777ZM109.892 42.7794C108.054 42.7794 106.514 43.2513 105.272 44.1951C104.08 45.0893 103.236 46.356 102.739 47.9952C102.441 48.8397 102.242 49.9326 102.143 51.2738C102.043 51.5222 102.143 51.6463 102.441 51.6463H117.567C117.815 51.6463 117.939 51.5222 117.939 51.2738C117.84 50.0319 117.691 49.0881 117.492 48.4423C117.045 46.654 116.151 45.2631 114.81 44.2696C113.518 43.2761 111.879 42.7794 109.892 42.7794ZM143.736 74.4471C140.606 74.4471 137.849 74 135.465 73.1059C133.13 72.162 131.317 70.8953 130.025 69.3057C128.734 67.6665 128.088 65.8533 128.088 63.8663V63.1957C128.088 62.9474 128.163 62.7487 128.312 62.5996C128.51 62.4009 128.734 62.3016 128.982 62.3016H135.539C135.788 62.3016 135.986 62.4009 136.135 62.5996C136.334 62.7487 136.434 62.9474 136.434 63.1957V63.3448C136.434 64.5866 137.104 65.6795 138.445 66.6233C139.836 67.5174 141.575 67.9645 143.661 67.9645C145.648 67.9645 147.263 67.5671 148.505 66.7723C149.746 65.9278 150.367 64.8847 150.367 63.6428C150.367 62.5003 149.846 61.6558 148.803 61.1094C147.809 60.5133 146.17 59.8924 143.885 59.2466L141.053 58.3524C138.52 57.6073 136.384 56.8125 134.645 55.9681C132.907 55.1236 131.441 53.9811 130.249 52.5405C129.057 51.0502 128.461 49.1626 128.461 46.8776C128.461 43.4003 129.827 40.6434 132.559 38.6067C135.291 36.5204 138.892 35.4772 143.363 35.4772C146.393 35.4772 149.051 35.9739 151.336 36.9674C153.621 37.9113 155.384 39.2525 156.626 40.9911C157.868 42.68 158.489 44.6174 158.489 46.8031C158.489 47.0514 158.39 47.275 158.191 47.4737C158.042 47.6227 157.843 47.6972 157.595 47.6972H151.261C151.013 47.6972 150.79 47.6227 150.591 47.4737C150.442 47.275 150.367 47.0514 150.367 46.8031C150.367 45.5115 149.722 44.4435 148.43 43.599C147.188 42.7049 145.474 42.2578 143.289 42.2578C141.351 42.2578 139.762 42.6304 138.52 43.3755C137.328 44.0709 136.732 45.0644 136.732 46.356C136.732 47.5482 137.303 48.4672 138.445 49.1129C139.638 49.709 141.6 50.3796 144.332 51.1248L145.971 51.5718C148.604 52.3666 150.814 53.1863 152.603 54.0307C154.391 54.8255 155.906 55.9681 157.148 57.4583C158.39 58.8989 159.011 60.7865 159.011 63.1212C159.011 66.6481 157.62 69.4299 154.838 71.4666C152.056 73.4536 148.355 74.4471 143.736 74.4471ZM181.602 35.8498C181.85 35.8498 182.049 35.9491 182.198 36.1478C182.397 36.2968 182.496 36.4955 182.496 36.7439V42.6304C182.496 42.8787 182.397 43.1023 182.198 43.301C182.049 43.45 181.85 43.5245 181.602 43.5245H174.225C173.977 43.5245 173.853 43.6487 173.853 43.8971V73.1059C173.853 73.3542 173.753 73.5778 173.555 73.7765C173.406 73.9255 173.207 74 172.958 74H166.103C165.855 74 165.631 73.9255 165.433 73.7765C165.284 73.5778 165.209 73.3542 165.209 73.1059V43.8971C165.209 43.6487 165.085 43.5245 164.837 43.5245H160.217C159.969 43.5245 159.745 43.45 159.546 43.301C159.397 43.1023 159.323 42.8787 159.323 42.6304V36.7439C159.323 36.4955 159.397 36.2968 159.546 36.1478C159.745 35.9491 159.969 35.8498 160.217 35.8498H164.837C165.085 35.8498 165.209 35.7256 165.209 35.4772V34.136C165.209 30.9071 165.631 28.4234 166.476 26.6848C167.32 24.8965 168.711 23.6298 170.649 22.8846C172.586 22.1395 175.318 21.7918 178.845 21.8415H181.453C181.701 21.8415 181.9 21.9408 182.049 22.1395C182.248 22.2885 182.347 22.4872 182.347 22.7356V27.9515C182.347 28.1998 182.248 28.4234 182.049 28.6221C181.9 28.7711 181.701 28.8456 181.453 28.8456H179.516C177.38 28.8456 175.889 29.2679 175.045 30.1123C174.25 30.9568 173.853 32.4967 173.853 34.7321V35.4772C173.853 35.7256 173.977 35.8498 174.225 35.8498H181.602ZM214.748 50.6777C214.947 51.9196 215.046 53.3104 215.046 54.8504L214.972 57.1602C214.972 57.7563 214.674 58.0544 214.078 58.0544H190.755C190.507 58.0544 190.383 58.1786 190.383 58.427C190.532 60.0662 190.755 61.1839 191.053 61.78C192.245 65.3566 195.151 67.1697 199.771 67.2194C203.149 67.2194 205.832 65.8285 207.819 63.0467C208.017 62.7487 208.266 62.5996 208.564 62.5996C208.762 62.5996 208.936 62.6741 209.085 62.8232L213.705 66.6233C214.152 66.971 214.227 67.3684 213.929 67.8155C212.389 70.0012 210.327 71.6901 207.744 72.8823C205.211 74.0745 202.379 74.6706 199.25 74.6706C195.375 74.6706 192.072 73.8013 189.34 72.0627C186.657 70.3241 184.695 67.89 183.453 64.7605C182.311 62.0781 181.739 58.3524 181.739 53.5837C181.739 50.7025 182.037 48.3678 182.633 46.5795C183.627 43.1023 185.49 40.3702 188.222 38.3832C191.004 36.3465 194.332 35.3282 198.206 35.3282C207.992 35.3282 213.506 40.4447 214.748 50.6777ZM198.206 42.7794C196.368 42.7794 194.829 43.2513 193.587 44.1951C192.395 45.0893 191.55 46.356 191.053 47.9952C190.755 48.8397 190.557 49.9326 190.457 51.2738C190.358 51.5222 190.457 51.6463 190.755 51.6463H205.881C206.13 51.6463 206.254 51.5222 206.254 51.2738C206.154 50.0319 206.005 49.0881 205.807 48.4423C205.36 46.654 204.465 45.2631 203.124 44.2696C201.833 43.2761 200.193 42.7794 198.206 42.7794ZM250.59 45.7599C251.434 48.5417 251.856 51.5718 251.856 54.8504C251.856 58.3773 251.384 61.482 250.441 64.1644C249.348 67.4429 247.584 70.0012 245.15 71.8391C242.716 73.6771 239.736 74.5961 236.209 74.5961C232.732 74.5961 229.875 73.2797 227.64 70.647C227.541 70.4979 227.441 70.4483 227.342 70.4979C227.243 70.5476 227.193 70.647 227.193 70.796V73.1059C227.193 73.3542 227.094 73.5778 226.895 73.7765C226.746 73.9255 226.547 74 226.299 74H219.444C219.195 74 218.972 73.9255 218.773 73.7765C218.624 73.5778 218.549 73.3542 218.549 73.1059V22.7356C218.549 22.4872 218.624 22.2885 218.773 22.1395C218.972 21.9408 219.195 21.8415 219.444 21.8415H226.299C226.547 21.8415 226.746 21.9408 226.895 22.1395C227.094 22.2885 227.193 22.4872 227.193 22.7356V38.9048C227.193 39.0538 227.243 39.1531 227.342 39.2028C227.441 39.2525 227.541 39.2276 227.64 39.1283C229.776 36.5949 232.607 35.3282 236.134 35.3282C239.81 35.3282 242.84 36.2472 245.225 38.0851C247.659 39.9231 249.447 42.4813 250.59 45.7599ZM241.201 63.5683C242.393 61.482 242.989 58.6257 242.989 54.9994C242.989 51.1248 242.244 48.0946 240.754 45.9089C239.413 43.8226 237.426 42.7794 234.793 42.7794C232.359 42.7794 230.496 43.8722 229.205 46.0579C227.963 48.0946 227.342 51.0502 227.342 54.9249C227.342 58.7498 227.913 61.631 229.056 63.5683C230.347 65.9527 232.285 67.1449 234.868 67.1449C236.259 67.1449 237.5 66.8468 238.593 66.2507C239.686 65.605 240.555 64.7108 241.201 63.5683ZM287.45 50.6777C287.649 51.9196 287.748 53.3104 287.748 54.8504L287.673 57.1602C287.673 57.7563 287.375 58.0544 286.779 58.0544H263.457C263.209 58.0544 263.084 58.1786 263.084 58.427C263.233 60.0662 263.457 61.1839 263.755 61.78C264.947 65.3566 267.853 67.1697 272.473 67.2194C275.851 67.2194 278.533 65.8285 280.52 63.0467C280.719 62.7487 280.967 62.5996 281.265 62.5996C281.464 62.5996 281.638 62.6741 281.787 62.8232L286.407 66.6233C286.854 66.971 286.928 67.3684 286.63 67.8155C285.09 70.0012 283.029 71.6901 280.446 72.8823C277.912 74.0745 275.081 74.6706 271.951 74.6706C268.077 74.6706 264.773 73.8013 262.041 72.0627C259.359 70.3241 257.397 67.89 256.155 64.7605C255.012 62.0781 254.441 58.3524 254.441 53.5837C254.441 50.7025 254.739 48.3678 255.335 46.5795C256.329 43.1023 258.191 40.3702 260.924 38.3832C263.705 36.3465 267.034 35.3282 270.908 35.3282C280.694 35.3282 286.208 40.4447 287.45 50.6777ZM270.908 42.7794C269.07 42.7794 267.53 43.2513 266.288 44.1951C265.096 45.0893 264.252 46.356 263.755 47.9952C263.457 48.8397 263.258 49.9326 263.159 51.2738C263.06 51.5222 263.159 51.6463 263.457 51.6463H278.583C278.831 51.6463 278.956 51.5222 278.956 51.2738C278.856 50.0319 278.707 49.0881 278.508 48.4423C278.061 46.654 277.167 45.2631 275.826 44.2696C274.534 43.2761 272.895 42.7794 270.908 42.7794ZM308.911 35.4772C310.5 35.4772 311.891 35.8001 313.083 36.4459C313.481 36.6446 313.63 37.0171 313.53 37.5635L312.264 44.2696C312.214 44.8657 311.866 45.0396 311.22 44.7912C310.475 44.5428 309.606 44.4187 308.613 44.4187C307.967 44.4187 307.47 44.4435 307.122 44.4932C305.036 44.5925 303.297 45.3376 301.906 46.7285C300.516 48.0698 299.82 49.8332 299.82 52.0189V73.1059C299.82 73.3542 299.721 73.5778 299.522 73.7765C299.373 73.9255 299.174 74 298.926 74H292.071C291.822 74 291.599 73.9255 291.4 73.7765C291.251 73.5778 291.177 73.3542 291.177 73.1059V36.8184C291.177 36.57 291.251 36.3713 291.4 36.2223C291.599 36.0236 291.822 35.9243 292.071 35.9243H298.926C299.174 35.9243 299.373 36.0236 299.522 36.2223C299.721 36.3713 299.82 36.57 299.82 36.8184V40.1715C299.82 40.3702 299.845 40.4944 299.895 40.544C299.994 40.544 300.093 40.4695 300.193 40.3205C302.279 37.0916 305.185 35.4772 308.911 35.4772Z" fill="#FF511E"/>
<path d="M39.4076 55.4492H16.4746C15.5524 55.4492 14.8047 56.1969 14.8047 57.1191V61.5378C14.8047 67.1286 19.353 71.677 24.9438 71.677H30.9381C36.5289 71.677 41.0772 67.1287 41.0772 61.5378V57.1191C41.0773 56.1968 40.3298 55.4492 39.4076 55.4492ZM30.9382 68.3375H24.9439C21.1946 68.3375 18.1444 65.2871 18.1444 61.5379V58.7889H37.7377V61.5379C37.7377 65.2871 34.6875 68.3375 30.9382 68.3375Z" fill="#FF511E"/>
<path d="M39.4076 48.7891H16.4746C15.5524 48.7891 14.8047 49.5367 14.8047 50.4589C14.8047 51.3811 15.5524 52.1288 16.4746 52.1288H39.4075C40.3297 52.1288 41.0773 51.3811 41.0773 50.4589C41.0773 49.5367 40.3298 48.7891 39.4076 48.7891Z" fill="#FF511E"/>
<path d="M48.2909 48.8654V46.7225C48.2909 44.1888 47.8242 41.7624 46.9742 39.5232V27.4984C46.9742 25.2754 45.1657 23.4669 42.9426 23.4669H39.2142C36.991 23.4669 35.1826 25.2754 35.1826 27.4984V27.706C32.9318 26.8463 30.4912 26.3736 27.9421 26.3736C25.3929 26.3736 22.9526 26.8463 20.7018 27.7059V27.4983C20.7018 25.2753 18.8933 23.4668 16.6703 23.4668H12.9419C10.7188 23.4668 8.91036 25.2753 8.91036 27.4983V39.5219C8.0602 41.7616 7.59315 44.1884 7.59315 46.7225V48.8654C3.30382 49.4954 0 53.1987 0 57.6602V65.8883C0 68.6505 2.24715 70.8977 5.00927 70.8977H7.59326V71.6226C7.59326 75.3862 10.6553 78.4482 14.4189 78.4482H41.4653C45.2289 78.4482 48.2909 75.3862 48.2909 71.6226V70.8977H50.8749C53.6371 70.8977 55.8841 68.6505 55.8841 65.8883V57.6602C55.8841 53.1987 52.5802 49.4954 48.2909 48.8654ZM7.59326 67.558H5.00927C4.0886 67.558 3.33962 66.8089 3.33962 65.8882V57.6601C3.33962 55.0459 5.15608 52.848 7.59326 52.2624V67.558ZM38.5222 27.4984C38.5222 27.1169 38.8326 26.8065 39.2142 26.8065H42.9426C43.3242 26.8065 43.6346 27.1169 43.6346 27.4984V33.7817C42.1919 32.0353 40.4636 30.5331 38.5223 29.3467L38.5222 27.4984ZM12.2501 27.4984C12.2501 27.1169 12.5605 26.8065 12.942 26.8065H16.6704C17.0519 26.8065 17.3623 27.1169 17.3623 27.4984V29.3464C15.4211 30.5328 13.6929 32.0348 12.2502 33.781L12.2501 27.4984ZM44.9513 71.6224C44.9513 73.5447 43.3874 75.1083 41.4654 75.1083H14.4189C12.4967 75.1083 10.933 73.5445 10.933 71.6224V46.7225C10.933 37.3436 18.5634 29.7133 27.9422 29.7133C34.9969 29.7133 41.0617 34.0308 43.6346 40.162V40.1656H43.636C44.4827 42.1845 44.9513 44.3998 44.9513 46.7226V71.6224ZM52.5445 65.8884C52.5445 66.8091 51.7954 67.5582 50.8749 67.5582H48.2909V52.2625C50.7281 52.8482 52.5445 55.046 52.5445 57.6602V65.8884Z" fill="#FF511E"/>
</svg>